<?xml version="1.0" encoding="utf-8"?>
<!-- Generator: Adobe Illustrator 23.0.2, SVG Export Plug-In . SVG Version: 6.00 Build 0)  -->
<svg version="1.1" id="Шар_1" xmlns="http://www.w3.org/2000/svg" xmlns:xlink="http://www.w3.org/1999/xlink" x="0px" y="0px"
	 viewBox="0 0 595.28 841.89" style="enable-background:new 0 0 595.28 841.89;" xml:space="preserve">
<style type="text/css">
	.st0{fill:#0D7E36;}
	.st1{fill:#FFFFFF;stroke:#008136;stroke-width:7;stroke-miterlimit:10;}
	.st2{fill:#008136;stroke:#008136;stroke-miterlimit:10;}
	.st3{fill:none;stroke:#008136;stroke-width:2;stroke-miterlimit:10;}
	.st4{fill:#0D7E36;stroke:#0D7E36;stroke-width:2;stroke-miterlimit:10;}
	.st5{fill:none;stroke:#0D7E36;stroke-width:3;stroke-miterlimit:10;}
	.st6{fill:#047F36;stroke:#047F36;stroke-width:2;stroke-miterlimit:10;}
	.st7{font-family:'ArialNarrow';}
	.st8{font-size:32.3897px;}
	.st9{font-size:31.162px;}
	.st10{fill:#047F36;}
	.st11{font-size:32.4287px;}
	.st12{fill:none;stroke:#047F36;stroke-width:2;stroke-miterlimit:10;}
	.st13{font-size:31.4921px;}
	.st14{font-size:31.8387px;}
	.st15{font-size:31.1353px;}
	.st16{fill:#0D7E36;stroke:#0D7E36;stroke-miterlimit:10;}
	.st17{fill:#008136;}
	.st18{fill:#FFFFFF;stroke:#0D7E36;stroke-miterlimit:10;}
	.st19{fill:none;stroke:#020203;stroke-width:2;stroke-miterlimit:10;}
	.st20{fill:none;stroke:#0D7E36;stroke-width:2;stroke-miterlimit:10;}
	.st21{fill:#FFFFFF;}
</style>
<rect x="294.42" y="477.3" class="st0" width="4.48" height="2.28"/>
<path class="st1" d="M444.1,261.4c0.5,24.5,1.8,49,1.7,64.2c-0.5,50.1-5.2,68.5-7.6,80.7c-5.5,27.5-14,45.5-15.9,49.7
	c-6.1,13.2-14.2,26.6-28.8,44.8c-7.6,9.5-16.2,15.9-24.8,21.7c-12.1,8.1-25.89,13.52-35.49,16.32c-10.1-2.1-26.21-7.42-42.71-19.12
	c-13-9.2-20.4-18.6-27.4-27.4c-19.2-24.2-26.8-47.5-29.1-56.1c-4-14.9-7-25-8.8-36.1c0,0-4.3-26.4-5.5-41.4
	c-3.1-38.4,2-87.5,2.5-97.2c-0.1,1.9-3.5,4.43,0.8,1.43c8.6-6,19.3-6.93,28.9-9.83c12.7-3.8,26.4-5.5,42.4-8
	c9.1-1.4,20.4-1.5,33.5-1.8c10.9-0.2,22.4-1.4,43.4,2.4c10.4,1.9,24.1,4.2,39.4,8.4c10.7,3,22,6.7,33.8,10.7"/>
<path class="st2" d="M335.4,477.6c0-2.1-0.6-9-0.2-37c0.9,0,1.7,0,2.5,0c0-19.6,0-39.3,0-58.9c0.5-4.1,0.6-11,4.1-17.8
	c3.3-6.5,6.3-11.7,12.8-14.8c1.2-0.6,6.6-1.6,11.1-0.9c8,1.3,11.5,8.6,14.2,13.8c10.4,19.9,6.1,40.7,3.7,52.1
	c-1.3,6.4-3.3,12.3-7.4,18.1c-2.8,3.9-5.2,7-7.3,8.6c-2.4-0.1-5.2,0.1-7.6,0.1c0.2-8.6,0-17.7,0.2-26.3c1.1-0.3,2.7-0.9,4.2-2.2
	c3.5-2.9,3.5-7.4,3.3-13.1c-0.3-7.4-0.3-10.6-0.4-15.6c-0.1-4.5-1.3-6.6-3.2-7.8c-2.1-1.2-5.5-0.8-6.1-0.7c-3.5,0.8-4.7,3.3-4.9,4.5
	c-0.4,3-0.3,5.3-0.3,5.8c0.1,5.3-1,34.5-0.9,72.7c-1.7-0.1-3,0.1-5.8,1c-0.7,0.2-3.1,1.7-5.4,4.2c0,0-4.87,5.6-6.57,14.8l0.07,0.4
	C335.6,478.7,335.4,477.6,335.4,477.6z"/>
<path class="st3" d="M334.92,478.38c5.8-0.2,14.38,0.12,20.08,0.12c0-2.4,0.7-5.1,1.1-6.4c2.8-8.9,11-12.6,11.8-12.9
	c2-0.9,3.8-1.2,4.9-1.4c0-5.8,0.1-11.7,0.1-17.5c-3.6-0.1-7.3-0.2-10.9-0.3c7.7,0,15.4,0.1,23.1,0.1c2.7-1.5,6.6-4,10.1-8.2
	c5.3-6.4,6.6-12.8,8.5-22c0.6-3.2,1.6-15.9,0.5-31.9c-0.4-6-2.1-9.3-3.4-12c-2.9-6.2-6.7-10.3-8.6-12.2c-2.8-2.7-4.9-5.4-7.4-5.5"/>
<path class="st0" d="M350.6,284.8c-4.6-0.6-8.4-5.7-12.5-8.9c-0.5-0.4-0.8-0.9-0.7-1.5c0-4.5,0.1-9.1,0.2-13.6
	c5.2-2.9,6.5-3.7,11.7-6.6c3.9,2.2,7.7,4.5,11.6,6.7c0.4,0.2,0.7,0.7,0.7,1.2c0.1,5.9,0.2,11.9,0.2,17.8c0,0.4-0.2,0.7-0.5,0.8
	c-3.2,1.3-7.5,3.2-10.9,4.1"/>
<path class="st4" d="M385.2,348.3c-5.3,0.1-15.7,0.2-21.6,0.4"/>
<path class="st5" d="M220.5,313c9-4.5,21.6-10,37.2-14.5c34.7-10,62.9-8.8,81.5-7.8c41.3,2.2,78.5,13.6,105,24.7"/>
<path class="st5" d="M442.2,351.9c-12.1-5.2-28.9-11.5-49.4-16.2c-43.6-10.1-78.3-7.7-88.6-6.8c-35.9,3.2-64.8,13-84.5,21.6"/>
<path class="st5" d="M220.8,360c6.3-3.3,15.2-7.5,26.4-11.5c32.1-11.4,58.9-12,77.4-12.2c38.8-0.5,67.8,7.2,77.1,9.8
	c17,4.8,30.9,10.6,41.2,15.5c0.4,2.7,0.8,5.4,1.2,8.1"/>
<text transform="matrix(1.0812 -0.3315 0.2932 0.956 251.7042 333.7864)" class="st6 st7 st8">О</text>
<text transform="matrix(1.1599 -0.1899 0.1616 0.9869 274.4559 326.8623)" class="st6 st7 st9">Х</text>
<g>
	<text transform="matrix(1.1295 0 0 1 294.7793 323.7308)" class="st10 st7 st11">О</text>
	<text transform="matrix(1.1295 0 0 1 294.7793 323.7308)" class="st12 st7 st11">О</text>
</g>
<g>
	<text transform="matrix(1.163 0 0 1 321.0381 321.9135)" class="st10 st7 st13">Р</text>
	<text transform="matrix(1.163 0 0 1 321.0381 321.9135)" class="st12 st7 st13">Р</text>
</g>
<g>
	<text transform="matrix(1.1436 0.1251 -0.1087 0.9941 342.4092 321.6664)" class="st10 st7 st14">О</text>
	<text transform="matrix(1.1436 0.1251 -0.1087 0.9941 342.4092 321.6664)" class="st12 st7 st14">О</text>
</g>
<g>
	<text transform="matrix(1.1712 0.1105 -0.0939 0.9956 369.6633 325.5446)" class="st10 st7 st15">Н</text>
	<text transform="matrix(1.1712 0.1105 -0.0939 0.9956 369.6633 325.5446)" class="st12 st7 st15">Н</text>
</g>
<g>
	<g>
		<path class="st16" d="M296.68,506.19c0.8,0,1,0.3,1.7,1l-0.9,0.1c1.2-0.8,2.1-1.8,2.9-4.8c1-3.7,1.3-7.5,1.6-12.1h0.9
			c-0.2,4.7-0.6,8.6-1.5,12.3c-1.1,4-2.6,5.6-4.4,5.6c-0.9,0-1.5-0.5-1.5-1.4C295.78,506.39,296.18,506.19,296.68,506.19z
			 M299.58,490.39h3v1h-0.3l-2.7-0.3V490.39L299.58,490.39z M302.58,490.39h5.7v0.9h-5.7V490.39z M304.88,507.19l3.2-0.3h0.4
			l3.2,0.3v0.7h-6.7L304.88,507.19L304.88,507.19z M307.48,499.89v-1.4c0-2.7,0-5.4-0.1-8.1h1.5c-0.1,2.7-0.1,5.4-0.1,8.1v1.4
			c0,2.7,0,5.4,0.1,8.1h-1.5C307.48,505.29,307.48,502.59,307.48,499.89z M308.28,490.39h3.4v0.7l-3.2,0.3h-0.2L308.28,490.39
			L308.28,490.39z"/>
		<path class="st16" d="M314.48,490.39h7v0.7l-3.3,0.3h-0.5l-3.2-0.3V490.39L314.48,490.39z M314.48,507.19l3.2-0.3h0.2v1h-3.4
			L314.48,507.19L314.48,507.19z M317.18,499.89v-1.4c0-2.7,0-5.4-0.1-8.1h1.5c-0.1,2.6-0.1,5.4-0.1,8.2v1.3c0,2.7,0,5.4,0.1,8.1
			h-1.5C317.18,505.29,317.18,502.59,317.18,499.89z M317.88,507.09h3.5c3.4,0,5-1.5,5-4.1s-1.4-4.2-5.1-4.2c-1.2,0-2.2,0-3.3,0.3
			v-0.8c1.3-0.2,2.5-0.3,3.7-0.3c4.1,0,6.2,2,6.2,5c0,2.8-2,5-6.2,5h-3.7L317.88,507.09L317.88,507.09z"/>
		<path class="st16" d="M329.88,491.09v-0.7h3.4v1h-0.2L329.88,491.09z M333.28,506.89v1h-3.4v-0.7l3.2-0.3H333.28z M332.58,498.49
			c0-2.7,0-5.4-0.1-8.1h1.5c-0.1,2.6-0.1,5.4-0.1,8.2v0.5c0,3.5,0,6.2,0.1,8.8h-1.5c0.1-2.6,0.1-5.4,0.1-8.1V498.49z M333.28,498.39
			h2.4c3.4,0,5.1-1.4,5.1-3.8c0-2.1-1.3-3.4-4.6-3.4h-2.8v-0.8h3.3c3.7,0,5.5,1.7,5.5,4.2c0,2.1-1.5,4-5.1,4.4l0.1-0.2
			c4.1,0.2,5.8,2.1,5.8,4.5c0,2.5-1.9,4.7-6.3,4.7h-3.4v-0.8h3.2c3.3,0,5.1-1.4,5.1-3.9c0-2.6-1.7-4-5.6-4h-2.6L333.28,498.39
			L333.28,498.39z"/>
		<path class="st16" d="M345.58,491.09v-0.7h6.7v0.7l-3.2,0.3h-0.4L345.58,491.09z M349.18,506.89l3.2,0.3v0.7h-6.7v-0.7l3.2-0.3
			H349.18z M348.28,498.49c0-2.7,0-5.4-0.1-8.1h1.5c-0.1,2.6-0.1,5.4-0.1,8.1v1.4c0,2.7,0,5.4,0.1,8.1h-1.5c0.1-2.6,0.1-5.4,0.1-8.1
			V498.49z"/>
		<path class="st16" d="M354.98,491.09v-0.7h3.4v1h-0.2L354.98,491.09z M358.38,506.89v1h-3.4v-0.7l3.2-0.3H358.38z M357.68,498.49
			c0-2.7,0-5.4-0.1-8.1h1.5c-0.1,2.6-0.1,5.4-0.1,8.2v0.5c0,3.5,0,6.2,0.1,8.8h-1.5c0.1-2.6,0.1-5.4,0.1-8.1V498.49z M358.38,498.39
			h2.4c3.4,0,5.1-1.4,5.1-3.8c0-2.1-1.3-3.4-4.6-3.4h-2.8v-0.8h3.3c3.7,0,5.5,1.7,5.5,4.2c0,2.1-1.5,4-5.1,4.4l0.1-0.2
			c4.1,0.2,5.8,2.1,5.8,4.5c0,2.5-1.9,4.7-6.3,4.7h-3.4v-0.8h3.2c3.3,0,5.1-1.4,5.1-3.9c0-2.6-1.7-4-5.6-4h-2.6L358.38,498.39
			L358.38,498.39z"/>
	</g>
</g>
<path class="st17" d="M272.4,289.9c-0.3-2.5-0.5-7.8,1.3-12.8c2.7-7.7,8.2-11.9,10.3-13.4c-3.6,0.3-7.2,0.7-10.8,1
	c-0.1-1.9-0.2-3.7-0.3-5.6c2.6-1.3,7.8-2.8,13.7-3c4.2-0.1,7.1,0.4,9.5,1.1c0.9,0.4,2.4,1.2,3.9,2.7c1.6,1.7,2.3,3.4,2.6,4.4
	c0,4.1-0.1,9.5-0.2,13.9c0,0.9-0.4,1.8-1,2.4c-1.4,1.4-2.3,2.4-3.6,3.6c-1.7,1.5-3.8,2.5-6,2.8c-6.4,0.9-13.3,1.9-19.7,2.8"/>
<path class="st18" d="M282.3,281.7c2.5-0.3,4.9-0.5,7.3-0.7c1.9-0.2,3.4-1.8,3.5-3.7c0.2-3.5,0.4-6.8,0.1-10.8
	c-0.1-0.8-0.4-1.6-1-2.3c-0.6-0.7-1.6-1.4-2.7-1.4c0,0-0.5,0-1.1,0.2c-2.3,0.9-4.6,5.7-5.5,7.6c-0.2,0.4-0.3,0.9-0.4,1.4
	c-0.2,3.1-0.1,6.9-0.3,9.9"/>
<path class="st0" d="M309.3,285c0-8.1-0.1-16.1-0.1-24.2c3.3-2.4,6.5-4.7,9.8-7c4,0.1,7.7,0.2,11.7,0.3c-0.1,1.8,0.1,3.7-0.1,5.5
	c-4,0-7.9,0-11.9-0.1c0,2.6,0,5.1-0.1,7.7c3.7,0,7.4,0,11.1,0.1c0,1-0.1,2-0.1,3c-3.7,0-7.4,0-11.1-0.1c0,3-0.1,6-0.1,8.9
	c4,0,8,0,12,0c0,1.9,0,3.8,0,5.8c-6.8,0.1-14.7,0.3-21.6,0.4"/>
<path class="st18" d="M351.5,279.4c0.7,0,1.8-0.3,3-1.4c0-5.3-0.1-8.2-0.1-13.5l-6.1-5.8c-0.1-0.1-0.2-0.1-0.3-0.1
	c-0.5,0-1.1,0-1.6,0.1c-0.2,0-0.3,0.1-0.3,0.3c-0.1,5-0.2,10-0.3,15C347,277.3,349.2,279.5,351.5,279.4z"/>
<path class="st0" d="M390.6,284.2c0,2.4,0,4.8,0.1,7.2c-6.6-0.2-10.6-2.2-13.1-4.1c-3.5-2.5-7.9-7.6-7.9-7.6
	c-0.1-5.6-0.3-11.3-0.4-16.9c3.5-1.6,7.1-3.4,10.6-4.8c0.4-0.1,1-0.6,2-0.4c1.4,0.2,2.2,1.3,2.3,1.4c1.7,1.8,3.5,3.5,5.4,5.3
	c0.4,0.4,0.4,1,0,1.4c-0.9,0.9-1.8,1.8-2.6,2.7c-0.4,0.4-1,0.4-1.4-0.1c-2-2.4-4-4.9-6.1-7.3c-0.8,0.3-0.8,0.3-1.6,0.6
	c0,5.1,0.1,10.1,0.1,15.2c0.5,1.1,1.3,2.4,2.5,3.6c3.2,3.3,8.8,4.4,10.4,4.5"/>
<path class="st19" d="M218,261.4c7.1-4.7,17.7-7.4,30.1-11c44.3-12.9,80.1-11.1,88.6-10.9c27.5,0.7,48.1,4.2,63.9,7.9
	c18.8,4.4,34.5,9.6,46.2,14c1,13.6,1.8,28.1,2.1,43.2c0.2,10.3,0.5,24.4-0.3,42.9c-0.4,8.9-0.9,19.2-2.4,32.5
	c-1.5,13.4-3.5,30.3-9.1,49.4c-2.9,9.8-8.9,27.6-22.3,48.5c-8.5,13.3-26.9,42.5-62.2,58.3c-7.8,3.5-14.5,5.5-19.3,6.8
	c-7.1-1.5-17.2-4.3-28.4-9.8c-24.3-12-38.3-30.9-45.1-39.5c-2.4-3-11.8-13.7-21.8-36.5c-7.2-16.3-14.29-38.9-19.29-73.2
	c-3.9-26.8-6.84-71.8-0.34-123.3"/>
<path class="st16" d="M327.3,348.6c-1.3,0.5-0.5,3.3-1.3,6.5c-1.1,5-5.8,8-8.7,9.8c-1.6,1-4.3,2.5-8,3.4c0,23,0,46,0,69
	c-0.1,2.5-0.7,4.5-1.1,5.8c-0.8,2.1-1.6,4.3-3.7,5.7c-0.6,0.4-2.6,1.8-4.9,1.2c-1.6-0.4-2.6-1.5-3.3-2.4c-0.5-0.7-1.7-2.2-2.4-5.8
	c-0.6-3.1-0.5-5.5-0.5-6.1c0.1-3.7,0.2-8.3,0.2-14.6c0.1-0.9,0.3-2.1,0.8-3.3c0.7-1.5,1.5-2.4,2.3-3.2c0.9-1,1.5-1.6,2.5-2
	c0.9-0.3,1.6-0.3,2.1-0.2c0-8.8,0-17.5-0.1-26.3c-1.8,0-3.6-0.1-5.5-0.1c-1.3,0.7-2.9,1.7-4.6,3.2c-0.4,0.4-2.4,2.1-4.4,4.7
	c-1.6,2.1-4,5.8-6.1,12.6c-1.8,5.7-2.3,10.2-2.9,15c-1.4,12.4-0.6,21.1-0.3,23.1c0.3,3.1,0.7,5.9,1.7,9.6c0.4,1.5,2,6.9,5.9,13.4
	c3.5,5.8,5.3,8.7,8.5,10.2c6.4,3.1,13.2-0.1,14.3-0.6c5-2.4,7.5-6.6,9.9-10.9c3.9-6.9,5.1-13.2,5.5-15.6c1.9-11.7,3-34.5,2.1-63.7
	c1-0.1,2-0.1,3-0.2c0.1-12.8,0.3-25,0.4-37.8C328.8,348.5,327.8,348.4,327.3,348.6z"/>
<path class="st20" d="M329.3,348.8c-6-0.1-15.7-0.4-21.7-0.5c0,1.8-0.1,4-1,6.4c-1.4,3.6-3.7,5.8-5.8,7.8c-1.2,1.1-2.8,2.6-5.4,4
	c-2,1-3.9,1.6-5.2,1.9c0.1,5.9,0.3,12,0.4,17.9c1.6,0,9.1,0.6,10.7,0.5c-5.4,0-16.9-0.9-22.3-1c-1.8,0.6-4.3,1.8-6.9,3.9
	c-2.8,2.3-4.4,4.7-5.6,6.8c-2,3.1-2.9,5.8-4.2,9.4c-1.6,4.6-2.4,8.2-2.7,9.4c-0.4,2.1-2.6,12.6-1,26.7c0.2,1.6,0.8,6.8,2.5,13.2
	c2.1,7.9,4.1,11,5.1,12.3c0.6,0.8,1.7,2.1,4.1,4.7c3,3.4,4.6,4.9,6.9,5.6c0.7,0.2,1.3,0.3,1.7,0.3c4.7,0.1,11.9,0.4,16.5,0.5"/>
<g>
	<text transform="matrix(1.1323 0.2658 -0.2286 0.9735 394.4375 329.9063)" class="st10 st7 st13">А</text>
	<text transform="matrix(1.1323 0.2658 -0.2286 0.9735 394.4375 329.9063)" class="st12 st7 st13">А</text>
</g>
<rect x="406.79" y="307.86" transform="matrix(0.981 0.1942 -0.1942 0.981 67.7084 -73.6103)" class="st21" width="5.2" height="1.51"/>
<rect x="333.6" y="477.41" transform="matrix(0.9994 -0.0356 0.0356 0.9994 -16.8375 12.215)" class="st21" width="1.32" height="2.14"/>
<rect x="302.88" y="508.29" class="st21" width="63.59" height="8.11"/>
<rect x="293.52" y="478.18" class="st0" width="6.28" height="1.39"/>
<rect x="291.27" y="479.47" class="st21" width="11.2" height="2.09"/>
<rect x="286.26" y="479.47" class="st21" width="7.01" height="2.09"/>
<rect x="329.19" y="347.56" transform="matrix(-1 -1.224647e-16 1.224647e-16 -1 658.4852 697.8313)" class="st21" width="0.11" height="2.72"/>
<rect x="330.22" y="350.28" class="st21" width="0.18" height="2.72"/>
<rect x="329.3" y="347.69" class="st21" width="0.3" height="2.73"/>
<rect x="330.74" y="349.05" class="st21" width="0.3" height="2.73"/>
</svg>
